<svg t="1660724534327" class="icon" viewBox="0 0 1024 1024" version="1.1" xmlns="http://www.w3.org/2000/svg" p-id="3425" xmlns:xlink="http://www.w3.org/1999/xlink" width="200" height="200"><defs><style type="text/css">@font-face { font-family: feedback-iconfont; src: url("//at.alicdn.com/t/font_1031158_u69w8yhxdu.woff2?t=1630033759944") format("woff2"), url("//at.alicdn.com/t/font_1031158_u69w8yhxdu.woff?t=1630033759944") format("woff"), url("//at.alicdn.com/t/font_1031158_u69w8yhxdu.ttf?t=1630033759944") format("truetype"); }
</style></defs><path d="M877.714286 780.189272h48.7607v48.760701H877.714286zM877.714286 731.428571h48.7607v48.760701H877.714286zM877.714286 682.664258h48.7607v48.764313H877.714286zM877.714286 633.903558h48.7607v48.7607H877.714286zM877.714286 585.142857h48.7607v48.760701H877.714286zM877.714286 536.378544h48.7607v48.764313H877.714286zM828.949973 828.949973h48.764313v48.764313h-48.764313z" fill="#09111F" p-id="3426"></path><path d="M828.949973 780.189272h48.764313v48.760701h-48.764313z" fill="#F47722" p-id="3427"></path><path d="M828.949973 731.428571h48.764313v48.760701h-48.764313zM828.949973 682.664258h48.764313v48.764313h-48.764313zM828.949973 633.903558h48.764313v48.7607h-48.764313zM828.949973 585.142857h48.764313v48.760701h-48.764313z" fill="#FFEC3B" p-id="3428"></path><path d="M828.949973 536.378544h48.764313v48.764313h-48.764313z" fill="#F6F37C" p-id="3429"></path><path d="M828.949973 487.617843h48.764313v48.760701h-48.764313zM828.949973 438.857143h48.764313v48.7607h-48.764313zM828.949973 390.096442h48.764313v48.760701h-48.764313zM828.949973 341.332129h48.764313v48.764313h-48.764313zM828.949973 292.571429h48.764313v48.7607h-48.764313zM828.949973 243.810728h48.764313V292.571429h-48.764313zM780.189272 877.714286h48.760701v48.7607h-48.760701z" fill="#09111F" p-id="3430"></path><path d="M780.189272 828.949973h48.760701v48.764313h-48.760701zM780.189272 780.189272h48.760701v48.760701h-48.760701z" fill="#F47722" p-id="3431"></path><path d="M780.189272 731.428571h48.760701v48.760701h-48.760701zM780.189272 682.664258h48.760701v48.764313h-48.760701zM780.189272 633.903558h48.760701v48.7607h-48.760701zM780.189272 585.142857h48.760701v48.760701h-48.760701z" fill="#FFEC3B" p-id="3432"></path><path d="M780.189272 536.378544h48.760701v48.764313h-48.760701zM780.189272 487.617843h48.760701v48.760701h-48.760701z" fill="#F6F37C" p-id="3433"></path><path d="M780.189272 438.857143h48.760701v48.7607h-48.760701z" fill="#627190" p-id="3434"></path><path d="M780.189272 390.096442h48.760701v48.760701h-48.760701z" fill="#8C9DB6" p-id="3435"></path><path d="M780.189272 341.332129h48.760701v48.764313h-48.760701zM780.189272 292.571429h48.760701v48.7607h-48.760701zM780.189272 243.810728h48.760701V292.571429h-48.760701z" fill="#C2CDDE" p-id="3436"></path><path d="M780.189272 195.046415h48.760701v48.764313h-48.760701zM731.428571 877.714286h48.760701v48.7607h-48.760701z" fill="#09111F" p-id="3437"></path><path d="M731.428571 828.949973h48.760701v48.764313h-48.760701zM731.428571 780.189272h48.760701v48.760701h-48.760701z" fill="#F47722" p-id="3438"></path><path d="M731.428571 731.428571h48.760701v48.760701h-48.760701zM731.428571 682.664258h48.760701v48.764313h-48.760701zM731.428571 633.903558h48.760701v48.7607h-48.760701zM731.428571 585.142857h48.760701v48.760701h-48.760701z" fill="#FFEC3B" p-id="3439"></path><path d="M731.428571 536.378544h48.760701v48.764313h-48.760701zM731.428571 487.617843h48.760701v48.760701h-48.760701z" fill="#F6F37C" p-id="3440"></path><path d="M731.428571 438.857143h48.760701v48.7607h-48.760701z" fill="#627190" p-id="3441"></path><path d="M731.428571 390.096442h48.760701v48.760701h-48.760701z" fill="#8C9DB6" p-id="3442"></path><path d="M731.428571 341.332129h48.760701v48.764313h-48.760701zM731.428571 292.571429h48.760701v48.7607h-48.760701zM731.428571 243.810728h48.760701V292.571429h-48.760701zM731.428571 195.046415h48.760701v48.764313h-48.760701z" fill="#C2CDDE" p-id="3443"></path><path d="M731.428571 146.285714h48.760701v48.760701h-48.760701zM682.664258 877.714286h48.764313v48.7607h-48.764313z" fill="#09111F" p-id="3444"></path><path d="M682.664258 828.949973h48.764313v48.764313h-48.764313z" fill="#FFFFFF" p-id="3445"></path><path d="M682.664258 780.189272h48.764313v48.760701h-48.764313z" fill="#F47722" p-id="3446"></path><path d="M682.664258 731.428571h48.764313v48.760701h-48.764313zM682.664258 682.664258h48.764313v48.764313h-48.764313zM682.664258 633.903558h48.764313v48.7607h-48.764313zM682.664258 585.142857h48.764313v48.760701h-48.764313z" fill="#FFEC3B" p-id="3447"></path><path d="M682.664258 536.378544h48.764313v48.764313h-48.764313zM682.664258 487.617843h48.764313v48.760701h-48.764313z" fill="#F6F37C" p-id="3448"></path><path d="M682.664258 438.857143h48.764313v48.7607h-48.764313z" fill="#627190" p-id="3449"></path><path d="M682.664258 390.096442h48.764313v48.760701h-48.764313zM682.664258 341.332129h48.764313v48.764313h-48.764313zM682.664258 292.571429h48.764313v48.7607h-48.764313zM682.664258 243.810728h48.764313V292.571429h-48.764313z" fill="#8C9DB6" p-id="3450"></path><path d="M682.664258 195.046415h48.764313v48.764313h-48.764313zM682.664258 146.285714h48.764313v48.760701h-48.764313z" fill="#C2CDDE" p-id="3451"></path><path d="M682.664258 97.525014h48.764313v48.7607h-48.764313zM633.903558 926.474986h48.7607v48.760701h-48.7607z" fill="#09111F" p-id="3452"></path><path d="M633.903558 877.714286h48.7607v48.7607h-48.7607zM633.903558 828.949973h48.7607v48.764313h-48.7607zM633.903558 780.189272h48.7607v48.760701h-48.7607z" fill="#F47722" p-id="3453"></path><path d="M633.903558 731.428571h48.7607v48.760701h-48.7607zM633.903558 682.664258h48.7607v48.764313h-48.7607zM633.903558 633.903558h48.7607v48.7607h-48.7607zM633.903558 585.142857h48.7607v48.760701h-48.7607z" fill="#FFEC3B" p-id="3454"></path><path d="M633.903558 536.378544h48.7607v48.764313h-48.7607zM633.903558 487.617843h48.7607v48.760701h-48.7607z" fill="#F6F37C" p-id="3455"></path><path d="M633.903558 438.857143h48.7607v48.7607h-48.7607z" fill="#627190" p-id="3456"></path><path d="M633.903558 390.096442h48.7607v48.760701h-48.7607zM633.903558 341.332129h48.7607v48.764313h-48.7607zM633.903558 292.571429h48.7607v48.7607h-48.7607z" fill="#09111F" p-id="3457"></path><path d="M633.903558 243.810728h48.7607V292.571429h-48.7607zM633.903558 195.046415h48.7607v48.764313h-48.7607z" fill="#8C9DB6" p-id="3458"></path><path d="M633.903558 146.285714h48.7607v48.760701h-48.7607z" fill="#C2CDDE" p-id="3459"></path><path d="M633.903558 97.525014h48.7607v48.7607h-48.7607z" fill="#D9E5F9" p-id="3460"></path><path d="M633.903558 48.760701h48.7607v48.764313h-48.7607zM585.142857 926.474986h48.760701v48.760701H585.142857z" fill="#09111F" p-id="3461"></path><path d="M585.142857 877.714286h48.760701v48.7607H585.142857zM585.142857 828.949973h48.760701v48.764313H585.142857zM585.142857 780.189272h48.760701v48.760701H585.142857z" fill="#F47722" p-id="3462"></path><path d="M585.142857 731.428571h48.760701v48.760701H585.142857zM585.142857 682.664258h48.760701v48.764313H585.142857zM585.142857 633.903558h48.760701v48.7607H585.142857zM585.142857 585.142857h48.760701v48.760701H585.142857z" fill="#FFEC3B" p-id="3463"></path><path d="M585.142857 536.378544h48.760701v48.764313H585.142857zM585.142857 487.617843h48.760701v48.760701H585.142857z" fill="#F6F37C" p-id="3464"></path><path d="M585.142857 438.857143h48.760701v48.7607H585.142857zM585.142857 243.810728h48.760701V292.571429H585.142857z" fill="#09111F" p-id="3465"></path><path d="M585.142857 195.046415h48.760701v48.764313H585.142857zM585.142857 146.285714h48.760701v48.760701H585.142857z" fill="#8C9DB6" p-id="3466"></path><path d="M585.142857 97.525014h48.760701v48.7607H585.142857z" fill="#D9E5F9" p-id="3467"></path><path d="M585.142857 48.760701h48.760701v48.764313H585.142857zM536.378544 926.474986h48.764313v48.760701h-48.764313z" fill="#09111F" p-id="3468"></path><path d="M536.378544 877.714286h48.764313v48.7607h-48.764313zM536.378544 828.949973h48.764313v48.764313h-48.764313z" fill="#F47722" p-id="3469"></path><path d="M536.378544 780.189272h48.764313v48.760701h-48.764313zM536.378544 731.428571h48.764313v48.760701h-48.764313zM536.378544 682.664258h48.764313v48.764313h-48.764313zM536.378544 633.903558h48.764313v48.7607h-48.764313zM536.378544 585.142857h48.764313v48.760701h-48.764313z" fill="#FFEC3B" p-id="3470"></path><path d="M536.378544 536.378544h48.764313v48.764313h-48.764313zM536.378544 487.617843h48.764313v48.760701h-48.764313z" fill="#F6F37C" p-id="3471"></path><path d="M536.378544 438.857143h48.764313v48.7607h-48.764313zM536.378544 195.046415h48.764313v48.764313h-48.764313z" fill="#09111F" p-id="3472"></path><path d="M536.378544 146.285714h48.764313v48.760701h-48.764313z" fill="#8C9DB6" p-id="3473"></path><path d="M536.378544 97.525014h48.764313v48.7607h-48.764313z" fill="#D9E5F9" p-id="3474"></path><path d="M536.378544 48.760701h48.764313v48.764313h-48.764313zM487.617843 926.474986h48.760701v48.760701h-48.760701z" fill="#09111F" p-id="3475"></path><path d="M487.617843 877.714286h48.760701v48.7607h-48.760701zM487.617843 828.949973h48.760701v48.764313h-48.760701z" fill="#F47722" p-id="3476"></path><path d="M487.617843 780.189272h48.760701v48.760701h-48.760701zM487.617843 731.428571h48.760701v48.760701h-48.760701zM487.617843 682.664258h48.760701v48.764313h-48.760701zM487.617843 633.903558h48.760701v48.7607h-48.760701zM487.617843 585.142857h48.760701v48.760701h-48.760701z" fill="#FFEC3B" p-id="3477"></path><path d="M487.617843 536.378544h48.760701v48.764313h-48.760701zM487.617843 487.617843h48.760701v48.760701h-48.760701z" fill="#F6F37C" p-id="3478"></path><path d="M487.617843 438.857143h48.760701v48.7607h-48.760701zM487.617843 195.046415h48.760701v48.764313h-48.760701z" fill="#09111F" p-id="3479"></path><path d="M487.617843 146.285714h48.760701v48.760701h-48.760701z" fill="#8C9DB6" p-id="3480"></path><path d="M487.617843 97.525014h48.760701v48.7607h-48.760701z" fill="#D9E5F9" p-id="3481"></path><path d="M487.617843 48.760701h48.760701v48.764313h-48.760701zM438.857143 926.474986h48.7607v48.760701h-48.7607z" fill="#09111F" p-id="3482"></path><path d="M438.857143 877.714286h48.7607v48.7607h-48.7607zM438.857143 828.949973h48.7607v48.764313h-48.7607z" fill="#F47722" p-id="3483"></path><path d="M438.857143 780.189272h48.7607v48.760701h-48.7607zM438.857143 731.428571h48.7607v48.760701h-48.7607zM438.857143 682.664258h48.7607v48.764313h-48.7607zM438.857143 633.903558h48.7607v48.7607h-48.7607zM438.857143 585.142857h48.7607v48.760701h-48.7607z" fill="#FFEC3B" p-id="3484"></path><path d="M438.857143 536.378544h48.7607v48.764313h-48.7607zM438.857143 487.617843h48.7607v48.760701h-48.7607z" fill="#F6F37C" p-id="3485"></path><path d="M438.857143 438.857143h48.7607v48.7607h-48.7607zM438.857143 195.046415h48.7607v48.764313h-48.7607z" fill="#09111F" p-id="3486"></path><path d="M438.857143 146.285714h48.7607v48.760701h-48.7607z" fill="#8C9DB6" p-id="3487"></path><path d="M438.857143 97.525014h48.7607v48.7607h-48.7607z" fill="#D9E5F9" p-id="3488"></path><path d="M438.857143 48.760701h48.7607v48.764313h-48.7607zM390.096442 926.474986h48.760701v48.760701h-48.760701z" fill="#09111F" p-id="3489"></path><path d="M390.096442 877.714286h48.760701v48.7607h-48.760701zM390.096442 828.949973h48.760701v48.764313h-48.760701z" fill="#F47722" p-id="3490"></path><path d="M390.096442 780.189272h48.760701v48.760701h-48.760701zM390.096442 731.428571h48.760701v48.760701h-48.760701z" fill="#FFEC3B" p-id="3491"></path><path d="M390.096442 682.664258h48.760701v48.764313h-48.760701z" fill="#FFFFFF" p-id="3492"></path><path d="M390.096442 633.903558h48.760701v48.7607h-48.760701zM390.096442 585.142857h48.760701v48.760701h-48.760701z" fill="#FFEC3B" p-id="3493"></path><path d="M390.096442 536.378544h48.760701v48.764313h-48.760701zM390.096442 487.617843h48.760701v48.760701h-48.760701z" fill="#F6F37C" p-id="3494"></path><path d="M390.096442 438.857143h48.760701v48.7607h-48.760701zM390.096442 243.810728h48.760701V292.571429h-48.760701z" fill="#09111F" p-id="3495"></path><path d="M390.096442 195.046415h48.760701v48.764313h-48.760701z" fill="#596988" p-id="3496"></path><path d="M390.096442 146.285714h48.760701v48.760701h-48.760701z" fill="#8C9DB6" p-id="3497"></path><path d="M390.096442 97.525014h48.760701v48.7607h-48.760701z" fill="#D9E5F9" p-id="3498"></path><path d="M390.096442 48.760701h48.760701v48.764313h-48.760701zM341.332129 926.474986h48.764313v48.760701H341.332129z" fill="#09111F" p-id="3499"></path><path d="M341.332129 877.714286h48.764313v48.7607H341.332129z" fill="#F07324" p-id="3500"></path><path d="M341.332129 828.949973h48.764313v48.764313H341.332129z" fill="#F47722" p-id="3501"></path><path d="M341.332129 780.189272h48.764313v48.760701H341.332129zM341.332129 731.428571h48.764313v48.760701H341.332129z" fill="#FFEC3B" p-id="3502"></path><path d="M341.332129 682.664258h48.764313v48.764313H341.332129z" fill="#FFFFFF" p-id="3503"></path><path d="M341.332129 633.903558h48.764313v48.7607H341.332129z" fill="#FFEC3B" p-id="3504"></path><path d="M341.332129 585.142857h48.764313v48.760701H341.332129zM341.332129 536.378544h48.764313v48.764313H341.332129z" fill="#FFFFFF" p-id="3505"></path><path d="M341.332129 487.617843h48.764313v48.760701H341.332129z" fill="#F6F37C" p-id="3506"></path><path d="M341.332129 438.857143h48.764313v48.7607H341.332129z" fill="#627190" p-id="3507"></path><path d="M341.332129 390.096442h48.764313v48.760701H341.332129zM341.332129 341.332129h48.764313v48.764313H341.332129zM341.332129 292.571429h48.764313v48.7607H341.332129z" fill="#09111F" p-id="3508"></path><path d="M341.332129 243.810728h48.764313V292.571429H341.332129z" fill="#FFFFFF" p-id="3509"></path><path d="M341.332129 195.046415h48.764313v48.764313H341.332129z" fill="#596988" p-id="3510"></path><path d="M341.332129 146.285714h48.764313v48.760701H341.332129z" fill="#8C9DB6" p-id="3511"></path><path d="M341.332129 97.525014h48.764313v48.7607H341.332129z" fill="#D9E5F9" p-id="3512"></path><path d="M341.332129 48.760701h48.764313v48.764313H341.332129zM292.571429 877.714286h48.7607v48.7607H292.571429z" fill="#09111F" p-id="3513"></path><path d="M292.571429 828.949973h48.7607v48.764313H292.571429z" fill="#F07324" p-id="3514"></path><path d="M292.571429 780.189272h48.7607v48.760701H292.571429zM292.571429 731.428571h48.7607v48.760701H292.571429z" fill="#FFEC3B" p-id="3515"></path><path d="M292.571429 682.664258h48.7607v48.764313H292.571429zM292.571429 633.903558h48.7607v48.7607H292.571429z" fill="#FFFFFF" p-id="3516"></path><path d="M292.571429 585.142857h48.7607v48.760701H292.571429z" fill="#FFEC3B" p-id="3517"></path><path d="M292.571429 536.378544h48.7607v48.764313H292.571429zM292.571429 487.617843h48.7607v48.760701H292.571429z" fill="#F6F37C" p-id="3518"></path><path d="M292.571429 438.857143h48.7607v48.7607H292.571429z" fill="#627190" p-id="3519"></path><path d="M292.571429 390.096442h48.7607v48.760701H292.571429zM292.571429 341.332129h48.7607v48.764313H292.571429zM292.571429 292.571429h48.7607v48.7607H292.571429zM292.571429 243.810728h48.7607V292.571429H292.571429z" fill="#596988" p-id="3520"></path><path d="M292.571429 195.046415h48.7607v48.764313H292.571429z" fill="#FFFFFF" p-id="3521"></path><path d="M292.571429 146.285714h48.7607v48.760701H292.571429z" fill="#8C9DB6" p-id="3522"></path><path d="M292.571429 97.525014h48.7607v48.7607H292.571429zM243.810728 877.714286H292.571429v48.7607H243.810728z" fill="#09111F" p-id="3523"></path><path d="M243.810728 828.949973H292.571429v48.764313H243.810728zM243.810728 780.189272H292.571429v48.760701H243.810728z" fill="#F47722" p-id="3524"></path><path d="M243.810728 731.428571H292.571429v48.760701H243.810728zM243.810728 682.664258H292.571429v48.764313H243.810728zM243.810728 633.903558H292.571429v48.7607H243.810728zM243.810728 585.142857H292.571429v48.760701H243.810728z" fill="#FFEC3B" p-id="3525"></path><path d="M243.810728 536.378544H292.571429v48.764313H243.810728z" fill="#FFFFFF" p-id="3526"></path><path d="M243.810728 487.617843H292.571429v48.760701H243.810728z" fill="#F6F37C" p-id="3527"></path><path d="M243.810728 438.857143H292.571429v48.7607H243.810728z" fill="#627190" p-id="3528"></path><path d="M243.810728 390.096442H292.571429v48.760701H243.810728zM243.810728 341.332129H292.571429v48.764313H243.810728zM243.810728 292.571429H292.571429v48.7607H243.810728z" fill="#596988" p-id="3529"></path><path d="M243.810728 243.810728H292.571429V292.571429H243.810728zM243.810728 195.046415H292.571429v48.764313H243.810728z" fill="#8C9DB6" p-id="3530"></path><path d="M243.810728 146.285714H292.571429v48.760701H243.810728zM195.046415 877.714286h48.764313v48.7607H195.046415z" fill="#09111F" p-id="3531"></path><path d="M195.046415 828.949973h48.764313v48.764313H195.046415zM195.046415 780.189272h48.764313v48.760701H195.046415z" fill="#F47722" p-id="3532"></path><path d="M195.046415 731.428571h48.764313v48.760701H195.046415zM195.046415 682.664258h48.764313v48.764313H195.046415zM195.046415 633.903558h48.764313v48.7607H195.046415zM195.046415 585.142857h48.764313v48.760701H195.046415z" fill="#FFEC3B" p-id="3533"></path><path d="M195.046415 536.378544h48.764313v48.764313H195.046415zM195.046415 487.617843h48.764313v48.760701H195.046415z" fill="#F6F37C" p-id="3534"></path><path d="M195.046415 438.857143h48.764313v48.7607H195.046415z" fill="#627190" p-id="3535"></path><path d="M195.046415 390.096442h48.764313v48.760701H195.046415zM195.046415 341.332129h48.764313v48.764313H195.046415zM195.046415 292.571429h48.764313v48.7607H195.046415zM195.046415 243.810728h48.764313V292.571429H195.046415z" fill="#8C9DB6" p-id="3536"></path><path d="M195.046415 195.046415h48.764313v48.764313H195.046415zM146.285714 828.949973h48.760701v48.764313H146.285714z" fill="#09111F" p-id="3537"></path><path d="M146.285714 780.189272h48.760701v48.760701H146.285714z" fill="#F47722" p-id="3538"></path><path d="M146.285714 731.428571h48.760701v48.760701H146.285714zM146.285714 682.664258h48.760701v48.764313H146.285714zM146.285714 633.903558h48.760701v48.7607H146.285714zM146.285714 585.142857h48.760701v48.760701H146.285714z" fill="#FFEC3B" p-id="3539"></path><path d="M146.285714 536.378544h48.760701v48.764313H146.285714z" fill="#F6F37C" p-id="3540"></path><path d="M146.285714 487.617843h48.760701v48.760701H146.285714zM146.285714 438.857143h48.760701v48.7607H146.285714zM146.285714 390.096442h48.760701v48.760701H146.285714zM146.285714 341.332129h48.760701v48.764313H146.285714zM146.285714 292.571429h48.760701v48.7607H146.285714zM146.285714 243.810728h48.760701V292.571429H146.285714zM97.525014 780.189272h48.7607v48.760701H97.525014zM97.525014 731.428571h48.7607v48.760701H97.525014zM97.525014 682.664258h48.7607v48.764313H97.525014zM97.525014 633.903558h48.7607v48.7607H97.525014zM97.525014 585.142857h48.7607v48.760701H97.525014zM97.525014 536.378544h48.7607v48.764313H97.525014z" fill="#09111F" p-id="3541"></path></svg>