<svg t="1660724620382" class="icon" viewBox="0 0 1024 1024" version="1.1" xmlns="http://www.w3.org/2000/svg" p-id="3689" xmlns:xlink="http://www.w3.org/1999/xlink" width="200" height="200"><defs><style type="text/css">@font-face { font-family: feedback-iconfont; src: url("//at.alicdn.com/t/font_1031158_u69w8yhxdu.woff2?t=1630033759944") format("woff2"), url("//at.alicdn.com/t/font_1031158_u69w8yhxdu.woff?t=1630033759944") format("woff"), url("//at.alicdn.com/t/font_1031158_u69w8yhxdu.ttf?t=1630033759944") format("truetype"); }
</style></defs><path d="M975.235687 438.857143h48.764313v48.7607h-48.764313zM975.235687 390.096442h48.764313v48.760701h-48.764313zM975.235687 341.332129h48.764313v48.764313h-48.764313zM975.235687 292.571429h48.764313v48.7607h-48.764313zM975.235687 243.810728h48.764313V292.571429h-48.764313zM926.474986 536.378544h48.760701v48.764313h-48.760701zM926.474986 487.617843h48.760701v48.760701h-48.760701z" p-id="3690"></path><path d="M926.474986 438.857143h48.760701v48.7607h-48.760701zM926.474986 390.096442h48.760701v48.760701h-48.760701zM926.474986 341.332129h48.760701v48.764313h-48.760701zM926.474986 292.571429h48.760701v48.7607h-48.760701zM926.474986 243.810728h48.760701V292.571429h-48.760701z" fill="#E41C00" p-id="3691"></path><path d="M926.474986 195.046415h48.760701v48.764313h-48.760701zM877.714286 633.903558h48.7607v48.7607H877.714286zM877.714286 585.142857h48.7607v48.760701H877.714286z" p-id="3692"></path><path d="M877.714286 536.378544h48.7607v48.764313H877.714286zM877.714286 487.617843h48.7607v48.760701H877.714286z" fill="#E41C00" p-id="3693"></path><path d="M877.714286 438.857143h48.7607v48.7607H877.714286zM877.714286 390.096442h48.7607v48.760701H877.714286z" fill="#BD0502" p-id="3694"></path><path d="M877.714286 341.332129h48.7607v48.764313H877.714286zM877.714286 292.571429h48.7607v48.7607H877.714286z" fill="#E41C00" p-id="3695"></path><path d="M877.714286 243.810728h48.7607V292.571429H877.714286z" fill="#FFFFFF" p-id="3696"></path><path d="M877.714286 195.046415h48.7607v48.764313H877.714286z" fill="#E41C00" p-id="3697"></path><path d="M877.714286 146.285714h48.7607v48.760701H877.714286zM828.949973 682.664258h48.764313v48.764313h-48.764313z" p-id="3698"></path><path d="M828.949973 633.903558h48.764313v48.7607h-48.764313zM828.949973 585.142857h48.764313v48.760701h-48.764313z" fill="#E41C00" p-id="3699"></path><path d="M828.949973 536.378544h48.764313v48.764313h-48.764313z" fill="#BD0502" p-id="3700"></path><path d="M828.949973 487.617843h48.764313v48.760701h-48.764313z" fill="#900503" p-id="3701"></path><path d="M828.949973 438.857143h48.764313v48.7607h-48.764313zM828.949973 390.096442h48.764313v48.760701h-48.764313z" fill="#BD0502" p-id="3702"></path><path d="M828.949973 341.332129h48.764313v48.764313h-48.764313zM828.949973 292.571429h48.764313v48.7607h-48.764313zM828.949973 243.810728h48.764313V292.571429h-48.764313zM828.949973 195.046415h48.764313v48.764313h-48.764313zM828.949973 146.285714h48.764313v48.760701h-48.764313z" fill="#E41C00" p-id="3703"></path><path d="M828.949973 97.525014h48.764313v48.7607h-48.764313zM780.189272 731.428571h48.760701v48.760701h-48.760701z" p-id="3704"></path><path d="M780.189272 682.664258h48.760701v48.764313h-48.760701z" fill="#E41C00" p-id="3705"></path><path d="M780.189272 633.903558h48.760701v48.7607h-48.760701zM780.189272 585.142857h48.760701v48.760701h-48.760701z" fill="#BD0502" p-id="3706"></path><path d="M780.189272 536.378544h48.760701v48.764313h-48.760701zM780.189272 487.617843h48.760701v48.760701h-48.760701zM780.189272 438.857143h48.760701v48.7607h-48.760701zM780.189272 390.096442h48.760701v48.760701h-48.760701zM780.189272 341.332129h48.760701v48.764313h-48.760701z" fill="#900503" p-id="3707"></path><path d="M780.189272 292.571429h48.760701v48.7607h-48.760701zM780.189272 243.810728h48.760701V292.571429h-48.760701z" fill="#E41C00" p-id="3708"></path><path d="M780.189272 195.046415h48.760701v48.764313h-48.760701z" fill="#BD0502" p-id="3709"></path><path d="M780.189272 146.285714h48.760701v48.760701h-48.760701z" fill="#E41C00" p-id="3710"></path><path d="M780.189272 97.525014h48.760701v48.7607h-48.760701zM731.428571 780.189272h48.760701v48.760701h-48.760701z" p-id="3711"></path><path d="M731.428571 731.428571h48.760701v48.760701h-48.760701z" fill="#E41C00" p-id="3712"></path><path d="M731.428571 682.664258h48.760701v48.764313h-48.760701zM731.428571 633.903558h48.760701v48.7607h-48.760701z" fill="#BD0502" p-id="3713"></path><path d="M731.428571 585.142857h48.760701v48.760701h-48.760701z" fill="#900503" p-id="3714"></path><path d="M731.428571 536.378544h48.760701v48.764313h-48.760701z" fill="#FFFFFF" p-id="3715"></path><path d="M731.428571 487.617843h48.760701v48.760701h-48.760701zM731.428571 438.857143h48.760701v48.7607h-48.760701z" fill="#900503" p-id="3716"></path><path d="M731.428571 390.096442h48.760701v48.760701h-48.760701z" fill="#BD0502" p-id="3717"></path><path d="M731.428571 341.332129h48.760701v48.764313h-48.760701z" fill="#E41C00" p-id="3718"></path><path d="M731.428571 292.571429h48.760701v48.7607h-48.760701z" fill="#900503" p-id="3719"></path><path d="M731.428571 243.810728h48.760701V292.571429h-48.760701zM731.428571 195.046415h48.760701v48.764313h-48.760701z" fill="#BD0502" p-id="3720"></path><path d="M731.428571 146.285714h48.760701v48.760701h-48.760701z" fill="#E41C00" p-id="3721"></path><path d="M731.428571 97.525014h48.760701v48.7607h-48.760701zM682.664258 780.189272h48.764313v48.760701h-48.764313z" p-id="3722"></path><path d="M682.664258 731.428571h48.764313v48.760701h-48.764313z" fill="#E41C00" p-id="3723"></path><path d="M682.664258 682.664258h48.764313v48.764313h-48.764313z" fill="#BD0502" p-id="3724"></path><path d="M682.664258 633.903558h48.764313v48.7607h-48.764313zM682.664258 585.142857h48.764313v48.760701h-48.764313zM682.664258 536.378544h48.764313v48.764313h-48.764313zM682.664258 487.617843h48.764313v48.760701h-48.764313zM682.664258 438.857143h48.764313v48.7607h-48.764313zM682.664258 390.096442h48.764313v48.760701h-48.764313zM682.664258 341.332129h48.764313v48.764313h-48.764313zM682.664258 292.571429h48.764313v48.7607h-48.764313z" fill="#900503" p-id="3725"></path><path d="M682.664258 243.810728h48.764313V292.571429h-48.764313zM682.664258 195.046415h48.764313v48.764313h-48.764313z" fill="#BD0502" p-id="3726"></path><path d="M682.664258 146.285714h48.764313v48.760701h-48.764313z" fill="#E41C00" p-id="3727"></path><path d="M682.664258 97.525014h48.764313v48.7607h-48.764313zM633.903558 828.949973h48.7607v48.764313h-48.7607z" p-id="3728"></path><path d="M633.903558 780.189272h48.7607v48.760701h-48.7607z" fill="#E41C00" p-id="3729"></path><path d="M633.903558 731.428571h48.7607v48.760701h-48.7607z" fill="#BD0502" p-id="3730"></path><path d="M633.903558 682.664258h48.7607v48.764313h-48.7607z" fill="#900503" p-id="3731"></path><path d="M633.903558 633.903558h48.7607v48.7607h-48.7607z" fill="#FFFFFF" p-id="3732"></path><path d="M633.903558 585.142857h48.7607v48.760701h-48.7607zM633.903558 536.378544h48.7607v48.764313h-48.7607zM633.903558 487.617843h48.7607v48.760701h-48.7607zM633.903558 438.857143h48.7607v48.7607h-48.7607zM633.903558 390.096442h48.7607v48.760701h-48.7607zM633.903558 341.332129h48.7607v48.764313h-48.7607zM633.903558 292.571429h48.7607v48.7607h-48.7607z" fill="#900503" p-id="3733"></path><path d="M633.903558 243.810728h48.7607V292.571429h-48.7607zM633.903558 195.046415h48.7607v48.764313h-48.7607z" fill="#BD0502" p-id="3734"></path><path d="M633.903558 146.285714h48.7607v48.760701h-48.7607z" fill="#E41C00" p-id="3735"></path><path d="M633.903558 97.525014h48.7607v48.7607h-48.7607zM585.142857 828.949973h48.760701v48.764313H585.142857z" p-id="3736"></path><path d="M585.142857 780.189272h48.760701v48.760701H585.142857z" fill="#E41C00" p-id="3737"></path><path d="M585.142857 731.428571h48.760701v48.760701H585.142857zM585.142857 682.664258h48.760701v48.764313H585.142857zM585.142857 633.903558h48.760701v48.7607H585.142857zM585.142857 585.142857h48.760701v48.760701H585.142857zM585.142857 536.378544h48.760701v48.764313H585.142857zM585.142857 487.617843h48.760701v48.760701H585.142857zM585.142857 438.857143h48.760701v48.7607H585.142857zM585.142857 390.096442h48.760701v48.760701H585.142857zM585.142857 341.332129h48.760701v48.764313H585.142857zM585.142857 292.571429h48.760701v48.7607H585.142857z" fill="#900503" p-id="3738"></path><path d="M585.142857 243.810728h48.760701V292.571429H585.142857zM585.142857 195.046415h48.760701v48.764313H585.142857z" fill="#BD0502" p-id="3739"></path><path d="M585.142857 146.285714h48.760701v48.760701H585.142857z" fill="#E41C00" p-id="3740"></path><path d="M585.142857 97.525014h48.760701v48.7607H585.142857zM536.378544 877.714286h48.764313v48.7607h-48.764313z" p-id="3741"></path><path d="M536.378544 828.949973h48.764313v48.764313h-48.764313z" fill="#E41C00" p-id="3742"></path><path d="M536.378544 780.189272h48.764313v48.760701h-48.764313z" fill="#BD0502" p-id="3743"></path><path d="M536.378544 731.428571h48.764313v48.760701h-48.764313zM536.378544 682.664258h48.764313v48.764313h-48.764313z" fill="#900503" p-id="3744"></path><path d="M536.378544 633.903558h48.764313v48.7607h-48.764313z" fill="#BD0502" p-id="3745"></path><path d="M536.378544 585.142857h48.764313v48.760701h-48.764313z" fill="#900503" p-id="3746"></path><path d="M536.378544 536.378544h48.764313v48.764313h-48.764313z" fill="#FFFFFF" p-id="3747"></path><path d="M536.378544 487.617843h48.764313v48.760701h-48.764313zM536.378544 438.857143h48.764313v48.7607h-48.764313zM536.378544 390.096442h48.764313v48.760701h-48.764313zM536.378544 341.332129h48.764313v48.764313h-48.764313zM536.378544 292.571429h48.764313v48.7607h-48.764313z" fill="#900503" p-id="3748"></path><path d="M536.378544 243.810728h48.764313V292.571429h-48.764313z" fill="#BD0502" p-id="3749"></path><path d="M536.378544 195.046415h48.764313v48.764313h-48.764313z" fill="#E41C00" p-id="3750"></path><path d="M536.378544 146.285714h48.764313v48.760701h-48.764313zM487.617843 926.474986h48.760701v48.760701h-48.760701z" p-id="3751"></path><path d="M487.617843 877.714286h48.760701v48.7607h-48.760701z" fill="#E41C00" p-id="3752"></path><path d="M487.617843 828.949973h48.760701v48.764313h-48.760701zM487.617843 780.189272h48.760701v48.760701h-48.760701z" fill="#BD0502" p-id="3753"></path><path d="M487.617843 731.428571h48.760701v48.760701h-48.760701z" fill="#900503" p-id="3754"></path><path d="M487.617843 682.664258h48.760701v48.764313h-48.760701z" fill="#BD0502" p-id="3755"></path><path d="M487.617843 633.903558h48.760701v48.7607h-48.760701zM487.617843 585.142857h48.760701v48.760701h-48.760701zM487.617843 536.378544h48.760701v48.764313h-48.760701zM487.617843 487.617843h48.760701v48.760701h-48.760701zM487.617843 438.857143h48.760701v48.7607h-48.760701zM487.617843 390.096442h48.760701v48.760701h-48.760701zM487.617843 341.332129h48.760701v48.764313h-48.760701z" fill="#900503" p-id="3756"></path><path d="M487.617843 292.571429h48.760701v48.7607h-48.760701z" fill="#BE0602" p-id="3757"></path><path d="M487.617843 243.810728h48.760701V292.571429h-48.760701z" fill="#E41C00" p-id="3758"></path><path d="M487.617843 195.046415h48.760701v48.764313h-48.760701zM438.857143 877.714286h48.7607v48.7607h-48.7607z" p-id="3759"></path><path d="M438.857143 828.949973h48.7607v48.764313h-48.7607z" fill="#E41C00" p-id="3760"></path><path d="M438.857143 780.189272h48.7607v48.760701h-48.7607z" fill="#BD0502" p-id="3761"></path><path d="M438.857143 731.428571h48.7607v48.760701h-48.7607zM438.857143 682.664258h48.7607v48.764313h-48.7607zM438.857143 633.903558h48.7607v48.7607h-48.7607zM438.857143 585.142857h48.7607v48.760701h-48.7607z" fill="#900503" p-id="3762"></path><path d="M438.857143 536.378544h48.7607v48.764313h-48.7607z" fill="#BD0502" p-id="3763"></path><path d="M438.857143 487.617843h48.7607v48.760701h-48.7607zM438.857143 438.857143h48.7607v48.7607h-48.7607zM438.857143 390.096442h48.7607v48.760701h-48.7607zM438.857143 341.332129h48.7607v48.764313h-48.7607zM438.857143 292.571429h48.7607v48.7607h-48.7607z" fill="#900503" p-id="3764"></path><path d="M438.857143 243.810728h48.7607V292.571429h-48.7607z" fill="#BE0602" p-id="3765"></path><path d="M438.857143 195.046415h48.7607v48.764313h-48.7607z" fill="#E41C00" p-id="3766"></path><path d="M438.857143 146.285714h48.7607v48.760701h-48.7607zM390.096442 828.949973h48.760701v48.764313h-48.760701z" p-id="3767"></path><path d="M390.096442 780.189272h48.760701v48.760701h-48.760701z" fill="#E41C00" p-id="3768"></path><path d="M390.096442 731.428571h48.760701v48.760701h-48.760701z" fill="#BD0502" p-id="3769"></path><path d="M390.096442 682.664258h48.760701v48.764313h-48.760701zM390.096442 633.903558h48.760701v48.7607h-48.760701zM390.096442 585.142857h48.760701v48.760701h-48.760701zM390.096442 536.378544h48.760701v48.764313h-48.760701zM390.096442 487.617843h48.760701v48.760701h-48.760701z" fill="#900503" p-id="3770"></path><path d="M390.096442 438.857143h48.760701v48.7607h-48.760701z" fill="#BD0502" p-id="3771"></path><path d="M390.096442 390.096442h48.760701v48.760701h-48.760701zM390.096442 341.332129h48.760701v48.764313h-48.760701z" fill="#E41C00" p-id="3772"></path><path d="M390.096442 292.571429h48.760701v48.7607h-48.760701z" fill="#900503" p-id="3773"></path><path d="M390.096442 243.810728h48.760701V292.571429h-48.760701zM390.096442 195.046415h48.760701v48.764313h-48.760701z" fill="#BE0602" p-id="3774"></path><path d="M390.096442 146.285714h48.760701v48.760701h-48.760701z" fill="#E41C00" p-id="3775"></path><path d="M390.096442 97.525014h48.760701v48.7607h-48.760701zM341.332129 828.949973h48.764313v48.764313H341.332129z" p-id="3776"></path><path d="M341.332129 780.189272h48.764313v48.760701H341.332129z" fill="#E41C00" p-id="3777"></path><path d="M341.332129 731.428571h48.764313v48.760701H341.332129z" fill="#BD0502" p-id="3778"></path><path d="M341.332129 682.664258h48.764313v48.764313H341.332129zM341.332129 633.903558h48.764313v48.7607H341.332129zM341.332129 585.142857h48.764313v48.760701H341.332129z" fill="#900503" p-id="3779"></path><path d="M341.332129 536.378544h48.764313v48.764313H341.332129z" fill="#BD0502" p-id="3780"></path><path d="M341.332129 487.617843h48.764313v48.760701H341.332129zM341.332129 438.857143h48.764313v48.7607H341.332129zM341.332129 390.096442h48.764313v48.760701H341.332129zM341.332129 341.332129h48.764313v48.764313H341.332129zM341.332129 292.571429h48.764313v48.7607H341.332129z" fill="#900503" p-id="3781"></path><path d="M341.332129 243.810728h48.764313V292.571429H341.332129z" fill="#BD0502" p-id="3782"></path><path d="M341.332129 195.046415h48.764313v48.764313H341.332129z" fill="#BE0602" p-id="3783"></path><path d="M341.332129 146.285714h48.764313v48.760701H341.332129z" fill="#E41C00" p-id="3784"></path><path d="M341.332129 97.525014h48.764313v48.7607H341.332129zM292.571429 780.189272h48.7607v48.760701H292.571429z" p-id="3785"></path><path d="M292.571429 731.428571h48.7607v48.760701H292.571429z" fill="#E41C00" p-id="3786"></path><path d="M292.571429 682.664258h48.7607v48.764313H292.571429z" fill="#BD0502" p-id="3787"></path><path d="M292.571429 633.903558h48.7607v48.7607H292.571429z" fill="#FFFFFF" p-id="3788"></path><path d="M292.571429 585.142857h48.7607v48.760701H292.571429z" fill="#900503" p-id="3789"></path><path d="M292.571429 536.378544h48.7607v48.764313H292.571429z" fill="#BD0502" p-id="3790"></path><path d="M292.571429 487.617843h48.7607v48.760701H292.571429zM292.571429 438.857143h48.7607v48.7607H292.571429z" fill="#900503" p-id="3791"></path><path d="M292.571429 390.096442h48.7607v48.760701H292.571429z" fill="#BD0502" p-id="3792"></path><path d="M292.571429 341.332129h48.7607v48.764313H292.571429z" fill="#E41C00" p-id="3793"></path><path d="M292.571429 292.571429h48.7607v48.7607H292.571429z" fill="#900503" p-id="3794"></path><path d="M292.571429 243.810728h48.7607V292.571429H292.571429z" fill="#BD0502" p-id="3795"></path><path d="M292.571429 195.046415h48.7607v48.764313H292.571429z" fill="#BE0602" p-id="3796"></path><path d="M292.571429 146.285714h48.7607v48.760701H292.571429z" fill="#E41C00" p-id="3797"></path><path d="M292.571429 97.525014h48.7607v48.7607H292.571429zM243.810728 780.189272H292.571429v48.760701H243.810728z" p-id="3798"></path><path d="M243.810728 731.428571H292.571429v48.760701H243.810728z" fill="#E41C00" p-id="3799"></path><path d="M243.810728 682.664258H292.571429v48.764313H243.810728z" fill="#BD0502" p-id="3800"></path><path d="M243.810728 633.903558H292.571429v48.7607H243.810728zM243.810728 585.142857H292.571429v48.760701H243.810728zM243.810728 536.378544H292.571429v48.764313H243.810728z" fill="#900503" p-id="3801"></path><path d="M243.810728 487.617843H292.571429v48.760701H243.810728z" fill="#BD0502" p-id="3802"></path><path d="M243.810728 438.857143H292.571429v48.7607H243.810728zM243.810728 390.096442H292.571429v48.760701H243.810728z" fill="#900503" p-id="3803"></path><path d="M243.810728 341.332129H292.571429v48.764313H243.810728z" fill="#E41C00" p-id="3804"></path><path d="M243.810728 292.571429H292.571429v48.7607H243.810728z" fill="#900503" p-id="3805"></path><path d="M243.810728 243.810728H292.571429V292.571429H243.810728z" fill="#BD0502" p-id="3806"></path><path d="M243.810728 195.046415H292.571429v48.764313H243.810728z" fill="#BE0602" p-id="3807"></path><path d="M243.810728 146.285714H292.571429v48.760701H243.810728z" fill="#E41C00" p-id="3808"></path><path d="M243.810728 97.525014H292.571429v48.7607H243.810728zM195.046415 731.428571h48.764313v48.760701H195.046415z" p-id="3809"></path><path d="M195.046415 682.664258h48.764313v48.764313H195.046415z" fill="#E41C00" p-id="3810"></path><path d="M195.046415 633.903558h48.764313v48.7607H195.046415zM195.046415 585.142857h48.764313v48.760701H195.046415z" fill="#BD0502" p-id="3811"></path><path d="M195.046415 536.378544h48.764313v48.764313H195.046415zM195.046415 487.617843h48.764313v48.760701H195.046415zM195.046415 438.857143h48.764313v48.7607H195.046415z" fill="#900503" p-id="3812"></path><path d="M195.046415 390.096442h48.764313v48.760701H195.046415zM195.046415 341.332129h48.764313v48.764313H195.046415z" fill="#E41C00" p-id="3813"></path><path d="M195.046415 292.571429h48.764313v48.7607H195.046415z" fill="#900503" p-id="3814"></path><path d="M195.046415 243.810728h48.764313V292.571429H195.046415z" fill="#BD0502" p-id="3815"></path><path d="M195.046415 195.046415h48.764313v48.764313H195.046415z" fill="#BE0602" p-id="3816"></path><path d="M195.046415 146.285714h48.764313v48.760701H195.046415z" fill="#E41C00" p-id="3817"></path><path d="M195.046415 97.525014h48.764313v48.7607H195.046415zM146.285714 682.664258h48.760701v48.764313H146.285714z" p-id="3818"></path><path d="M146.285714 633.903558h48.760701v48.7607H146.285714zM146.285714 585.142857h48.760701v48.760701H146.285714z" fill="#E41C00" p-id="3819"></path><path d="M146.285714 536.378544h48.760701v48.764313H146.285714z" fill="#BD0502" p-id="3820"></path><path d="M146.285714 487.617843h48.760701v48.760701H146.285714zM146.285714 438.857143h48.760701v48.7607H146.285714z" fill="#900503" p-id="3821"></path><path d="M146.285714 390.096442h48.760701v48.760701H146.285714zM146.285714 341.332129h48.760701v48.764313H146.285714zM146.285714 292.571429h48.760701v48.7607H146.285714z" fill="#E41C00" p-id="3822"></path><path d="M146.285714 243.810728h48.760701V292.571429H146.285714z" fill="#BD0502" p-id="3823"></path><path d="M146.285714 195.046415h48.760701v48.764313H146.285714z" fill="#BE0602" p-id="3824"></path><path d="M146.285714 146.285714h48.760701v48.760701H146.285714z" fill="#E41C00" p-id="3825"></path><path d="M146.285714 97.525014h48.760701v48.7607H146.285714zM97.525014 633.903558h48.7607v48.7607H97.525014zM97.525014 585.142857h48.7607v48.760701H97.525014z" p-id="3826"></path><path d="M97.525014 536.378544h48.7607v48.764313H97.525014zM97.525014 487.617843h48.7607v48.760701H97.525014z" fill="#E41C00" p-id="3827"></path><path d="M97.525014 438.857143h48.7607v48.7607H97.525014zM97.525014 390.096442h48.7607v48.760701H97.525014z" fill="#900503" p-id="3828"></path><path d="M97.525014 341.332129h48.7607v48.764313H97.525014zM97.525014 292.571429h48.7607v48.7607H97.525014zM97.525014 243.810728h48.7607V292.571429H97.525014zM97.525014 195.046415h48.7607v48.764313H97.525014z" fill="#E41C00" p-id="3829"></path><path d="M97.525014 146.285714h48.7607v48.760701H97.525014zM48.760701 536.378544h48.764313v48.764313H48.760701zM48.760701 487.617843h48.764313v48.760701H48.760701z" p-id="3830"></path><path d="M48.760701 438.857143h48.764313v48.7607H48.760701zM48.760701 390.096442h48.764313v48.760701H48.760701zM48.760701 341.332129h48.764313v48.764313H48.760701zM48.760701 292.571429h48.764313v48.7607H48.760701zM48.760701 243.810728h48.764313V292.571429H48.760701z" fill="#E41C00" p-id="3831"></path><path d="M48.760701 195.046415h48.764313v48.764313H48.760701zM0 438.857143h48.760701v48.7607H0zM0 390.096442h48.760701v48.760701H0zM0 341.332129h48.760701v48.764313H0zM0 292.571429h48.760701v48.7607H0zM0 243.810728h48.760701V292.571429H0z" p-id="3832"></path></svg>